<?xml version="1.0" ?><!DOCTYPE svg  PUBLIC '-//W3C//DTD SVG 1.1//EN'  'http://www.w3.org/Graphics/SVG/1.1/DTD/svg11.dtd'><svg height="512px" style="shape-rendering:geometricPrecision; text-rendering:geometricPrecision; image-rendering:optimizeQuality; fill-rule:evenodd; clip-rule:evenodd" version="1.1" viewBox="0 0 512 512" width="512px" xml:space="preserve" xmlns="http://www.w3.org/2000/svg" xmlns:xlink="http://www.w3.org/1999/xlink" xmlns:xodm="http://www.corel.com/coreldraw/odm/2003"><defs><style type="text/css">
   <![CDATA[
    .fil0 {fill:black}
   ]]>
  </style></defs><g id="Layer_x0020_1"><path class="fil0" d="M256 511.5c-141.11,0 -255.5,-114.39 -255.5,-255.5 0,-141.11 114.39,-255.5 255.5,-255.5 141.11,0 255.5,114.39 255.5,255.5 0,141.11 -114.39,255.5 -255.5,255.5zm-40.77 -408.13c-16.8,0 -30.53,13.72 -30.53,30.52 0,16.8 13.73,30.53 30.53,30.53 10.17,0 20.35,0 30.53,0l0 -30.53c0,-16.8 -13.53,-30.52 -30.53,-30.52zm-111.66 193.4c0,16.8 13.73,30.53 30.53,30.53 16.8,0 30.53,-13.73 30.53,-30.53l0 -30.53 -30.53 0c-17.01,0 -30.53,13.73 -30.53,30.53zm81.34 0l0 81.54c0,16.8 13.72,30.53 30.52,30.53 16.8,0 30.53,-13.73 30.53,-30.53l0 -81.54c0,-16.8 -13.73,-30.53 -30.53,-30.53 0,0 0,0 0,0 -17,0 -30.52,13.73 -30.52,30.53zm111.66 112.07c16.8,0 30.52,-13.73 30.52,-30.53 0,-16.8 -13.72,-30.53 -30.52,-30.53l-30.53 0 0 30.53c0,16.8 13.73,30.53 30.53,30.53zm81.33 -81.54c16.8,0 30.53,-13.73 30.53,-30.53 0,-16.8 -13.73,-30.53 -30.53,-30.53l-81.33 0c-16.8,0 -30.53,13.73 -30.53,30.53 0,16.8 13.73,30.53 30.53,30.53 27.11,0 54.22,0 81.33,0zm30.53 -112.07c0,-16.8 -13.73,-30.53 -30.53,-30.53 -16.8,0 -30.53,13.73 -30.53,30.53l0 30.53 30.53 0c16.8,0.2 30.53,-13.53 30.53,-30.53zm-81.34 0l0 -81.54c0,-16.8 -13.72,-30.53 -30.52,-30.53 -16.8,0 -30.53,13.73 -30.53,30.53l0 81.54c0,16.8 13.73,30.53 30.53,30.53 17,0.2 30.52,-13.53 30.52,-30.53zm-111.86 -30.53l-81.13 0c-16.8,0 -30.53,13.73 -30.53,30.53 0,16.8 13.73,30.53 30.53,30.53l81.33 0c16.8,0 30.53,-13.73 30.53,-30.53 -0.2,-16.8 -13.73,-30.53 -30.73,-30.53z"/></g></svg>